# xmcd
#
# Track frame offsets: 
#        150
#        20512
#        30837
#        50912
#        64107
#        78357
#        90537
#        110742
#        126817
#        144657
#        153490
#        160700
#        175270
#        186830
#        201800
#        218010
#        237282
#        244062
#        262600
#        284179
#
# Disc length: 3925 seconds
#
# Revision: 1
# Processed by: cddbd v1.5.2PL0 Copyright (c) Steve Scherf et al.
# Submitted via: ExactAudioCopy v1.3
#
DISCID=180f5314
DTITLE=Various Artists / O Brother, Where Art Thou? [Original Soundtra
DTITLE=ck]
DYEAR=2000
DGENRE=Soundtrack
TTITLE0=James Carter & the Prisoners / Po' Lazarus
TTITLE1=Harry McClintock / Big Rock Candy Mountain
TTITLE2=Norman Blake / You Are My Sunshine
TTITLE3=Alison Krauss / Down to the River to Pray
TTITLE4=The Soggy Bottom Boys / Dan Tyminski / I am a Man of Constant 
TTITLE4=Sorrow (radio station version)
TTITLE5=Chris Thomas King / Hard Time Killing Floor Blues
TTITLE6=Norman Blake / I Am a Man of Constant Sorrow (instrumental)
TTITLE7=The Whites / Keep on the Sunny Side
TTITLE8=Alison Krauss / Gillian Welch / I'll Fly Away
TTITLE9=Emmylou Harris / Alison Krauss / Gillian Welch / Didn't Leave 
TTITLE9=Nobody but the Baby
TTITLE10=The Peasall Sisters / In the Highways
TTITLE11=The Cox Family / I Am Weary (Let Me Rest)
TTITLE12=John Hartford / I Am a Man of Constant Sorrow (instrumental)
TTITLE13=Ralph Stanley / O Death
TTITLE14=The Soggy Bottom Boys / Tim Blake Nelson / In the Jailhouse N
TTITLE14=ow
TTITLE15=The Soggy Bottom Boys / Dan Tyminski / I Am a Man of Constant
TTITLE15= Sorrow (with band)
TTITLE16=John Hartford / Indian War Whoop
TTITLE17=The Fairfield Four / Lonesome Valley
TTITLE18=The Stanley Brothers / Angel Band
EXTD=
EXTT0=
EXTT1=
EXTT2=
EXTT3=
EXTT4=
EXTT5=
EXTT6=
EXTT7=
EXTT8=
EXTT9=
EXTT10=
EXTT11=
EXTT12=
EXTT13=
EXTT14=
EXTT15=
EXTT16=
EXTT17=
EXTT18=
PLAYORDER=
.
